<svg version="1.1" id="Layer_1" xmlns="http://www.w3.org/2000/svg" xmlns:xlink="http://www.w3.org/1999/xlink" viewBox="0 0 512 512" xml:space="preserve" fill="#000000">
  <g id="SVGRepo_bgCarrier" stroke-width="0"></g>
  <g id="SVGRepo_tracerCarrier" stroke-linecap="round" stroke-linejoin="round"></g>
  <g id="SVGRepo_iconCarrier">
    <rect x="230.557" y="221.804" style="fill:#E6E6E6;" width="176.802" height="280.987"></rect>
    <rect x="230.557" y="9.208" style="fill:#F95428;" width="176.802" height="176.802"></rect>
    <path style="fill:#2BA5F7;" d="M195.565,325.988V502.79h-12.119l-57.956-63.776l-23.502,25.859l-46.475-51.116l-36.763,40.446 V325.988H195.565z M168.306,384.042c0-15.312-12.402-27.713-27.713-27.713c-15.299,0-27.713,12.402-27.713,27.713 c0,15.299,12.414,27.713,27.713,27.713C155.905,411.755,168.306,399.341,168.306,384.042z"></path>
    <rect x="18.751" y="9.208" style="fill:#E6E6E6;" width="176.814" height="281"></rect>
    <polygon style="fill:#E09B2D;" points="125.49,439.014 183.446,502.79 136.455,502.79 101.989,464.873 "></polygon>
    <path style="fill:#F95428;" d="M140.593,356.329c15.312,0,27.713,12.402,27.713,27.713c0,15.299-12.402,27.713-27.713,27.713 c-15.299,0-27.713-12.414-27.713-27.713C112.88,368.73,125.294,356.329,140.593,356.329z"></path>
    <polygon style="fill:#F7B239;" points="101.989,464.873 136.455,502.79 18.751,502.79 18.751,454.203 55.514,413.756 "></polygon>
    <g>
      <path style="fill:#333333;" d="M195.562,0H18.757C13.67,0,9.548,4.123,9.548,9.209v280.992c0,5.086,4.122,9.209,9.209,9.209 h176.804c5.087,0,9.209-4.123,9.209-9.209V9.209C204.771,4.123,200.649,0,195.562,0z M186.353,280.992H27.966V18.418h158.386 L186.353,280.992L186.353,280.992z"></path>
      <path style="fill:#333333;" d="M195.562,316.776H18.757c-5.087,0-9.209,4.123-9.209,9.209v176.806c0,5.086,4.122,9.209,9.209,9.209 h176.804c5.087,0,9.209-4.123,9.209-9.209V325.985C204.771,320.899,200.649,316.776,195.562,316.776z M186.353,335.194v157.097 l-54.044-59.471c-1.746-1.92-4.221-3.016-6.816-3.016s-5.07,1.095-6.815,3.016l-16.691,18.364l-39.659-43.623 c-1.745-1.919-4.22-3.014-6.815-3.014c-2.593,0-5.069,1.095-6.813,3.016l-20.736,22.814v-95.183H186.353z M162.637,493.582h-22.105 l-26.099-28.707l11.059-12.168L162.637,493.582z M27.966,457.759l27.551-30.311l60.123,66.135H27.966V457.759z"></path>
      <path style="fill:#333333;" d="M407.359,212.59H230.555c-5.087,0-9.209,4.123-9.209,9.209v280.992c0,5.086,4.122,9.209,9.209,9.209 h176.804c5.087,0,9.209-4.123,9.209-9.209V221.799C416.568,216.713,412.446,212.59,407.359,212.59z M398.15,493.582H239.764 V231.008H398.15V493.582z"></path>
      <path style="fill:#333333;" d="M407.359,0H230.555c-5.087,0-9.209,4.123-9.209,9.209v176.806c0,5.086,4.122,9.209,9.209,9.209 h176.804c5.087,0,9.209-4.123,9.209-9.209V9.209C416.568,4.123,412.446,0,407.359,0z M398.15,176.806H239.764V18.418H398.15 V176.806z"></path>
      <path style="fill:#333333;" d="M273.835,82.878c5.087,0,9.209-4.123,9.209-9.209V60.777h26.704v75.51h-9.208 c-5.087,0-9.209,4.123-9.209,9.209s4.122,9.209,9.209,9.209h36.834c5.087,0,9.209-4.123,9.209-9.209s-4.122-9.209-9.209-9.209 h-9.208v-75.51h26.704v12.891c0,5.086,4.122,9.209,9.209,9.209c5.087,0,9.209-4.123,9.209-9.209V51.568 c0-5.086-4.122-9.209-9.209-9.209h-90.244c-5.087,0-9.209,4.123-9.209,9.209v22.101C264.626,78.755,268.749,82.878,273.835,82.878z "></path>
      <path style="fill:#333333;" d="M140.595,420.963c20.359,0,36.922-16.563,36.922-36.922c0-20.359-16.563-36.922-36.922-36.922 s-36.922,16.563-36.922,36.922C103.672,404.4,120.235,420.963,140.595,420.963z M140.595,365.535 c10.204,0,18.504,8.302,18.504,18.504s-8.302,18.504-18.504,18.504c-10.202,0-18.504-8.302-18.504-18.504 S130.391,365.535,140.595,365.535z"></path>
      <path style="fill:#333333;" d="M88.743,59.243h66.302c5.087,0,9.209-4.123,9.209-9.209s-4.122-9.209-9.209-9.209H88.743 c-5.087,0-9.209,4.123-9.209,9.209S83.655,59.243,88.743,59.243z"></path>
      <path style="fill:#333333;" d="M59.275,99.112h95.769c5.087,0,9.209-4.123,9.209-9.209c0-5.086-4.122-9.209-9.209-9.209H59.275 c-5.087,0-9.209,4.123-9.209,9.209C50.066,94.989,54.188,99.112,59.275,99.112z"></path>
      <path style="fill:#333333;" d="M59.275,138.98h95.769c5.087,0,9.209-4.123,9.209-9.209c0-5.086-4.122-9.209-9.209-9.209H59.275 c-5.087,0-9.209,4.123-9.209,9.209C50.066,134.856,54.188,138.98,59.275,138.98z"></path>
      <path style="fill:#333333;" d="M59.275,178.849h95.769c5.087,0,9.209-4.123,9.209-9.209s-4.122-9.209-9.209-9.209H59.275 c-5.087,0-9.209,4.123-9.209,9.209S54.188,178.849,59.275,178.849z"></path>
      <path style="fill:#333333;" d="M59.275,218.717h95.769c5.087,0,9.209-4.123,9.209-9.209s-4.122-9.209-9.209-9.209H59.275 c-5.087,0-9.209,4.123-9.209,9.209S54.188,218.717,59.275,218.717z"></path>
      <path style="fill:#333333;" d="M59.275,258.586h40.517c5.087,0,9.209-4.123,9.209-9.209s-4.122-9.209-9.209-9.209H59.275 c-5.087,0-9.209,4.123-9.209,9.209S54.188,258.586,59.275,258.586z"></path>
      <path style="fill:#333333;" d="M300.54,271.832h66.302c5.087,0,9.209-4.123,9.209-9.209c0-5.086-4.122-9.209-9.209-9.209H300.54 c-5.087,0-9.209,4.123-9.209,9.209C291.331,267.709,295.454,271.832,300.54,271.832z"></path>
      <path style="fill:#333333;" d="M271.072,311.701h95.77c5.087,0,9.209-4.123,9.209-9.209c0-5.086-4.122-9.209-9.209-9.209h-95.769 c-5.087,0-9.209,4.123-9.209,9.209C261.863,307.578,265.987,311.701,271.072,311.701z"></path>
      <path style="fill:#333333;" d="M271.072,351.569h95.77c5.087,0,9.209-4.123,9.209-9.209c0-5.086-4.122-9.209-9.209-9.209h-95.769 c-5.087,0-9.209,4.123-9.209,9.209C261.863,347.446,265.987,351.569,271.072,351.569z"></path>
      <path style="fill:#333333;" d="M271.072,391.437h95.77c5.087,0,9.209-4.123,9.209-9.209c0-5.086-4.122-9.209-9.209-9.209h-95.769 c-5.087,0-9.209,4.123-9.209,9.209C261.863,387.314,265.987,391.437,271.072,391.437z"></path>
      <path style="fill:#333333;" d="M271.072,431.306h95.77c5.087,0,9.209-4.123,9.209-9.209c0-5.086-4.122-9.209-9.209-9.209h-95.769 c-5.087,0-9.209,4.123-9.209,9.209C261.863,427.183,265.987,431.306,271.072,431.306z"></path>
      <path style="fill:#333333;" d="M271.072,471.174h40.517c5.087,0,9.209-4.123,9.209-9.209c0-5.086-4.122-9.209-9.209-9.209h-40.517 c-5.087,0-9.209,4.123-9.209,9.209C261.863,467.051,265.987,471.174,271.072,471.174z"></path>
      <path style="fill:#333333;" d="M486.728,471.103l-9.455,9.455V31.441l9.455,9.456c1.799,1.798,4.156,2.698,6.513,2.698 s4.714-0.899,6.513-2.698c3.596-3.596,3.596-9.428,0-13.023L474.577,2.698c-3.598-3.596-9.428-3.596-13.024,0l-25.176,25.176 c-3.596,3.596-3.596,9.428,0,13.023c3.598,3.596,9.428,3.596,13.024,0l9.455-9.456v449.117l-9.455-9.455 c-3.598-3.596-9.428-3.596-13.024,0s-3.596,9.428,0,13.023l25.176,25.176c1.799,1.798,4.156,2.698,6.513,2.698 s4.714-0.899,6.513-2.698l25.176-25.176c3.596-3.596,3.596-9.428,0-13.023C496.156,467.507,490.326,467.507,486.728,471.103z"></path>
    </g>
  </g>
</svg>